<svg width="40" height="40" viewBox="0 0 40 40" fill="none" xmlns="http://www.w3.org/2000/svg">
<g clip-path="url(#clip0_39_15)">
<rect width="40" height="40" rx="20" fill="black"/>
<g filter="url(#filter0_d_39_15)">
<path d="M19.9565 13.9446C9.42168 5.40222 1.7671 16.6744 19.9565 32Z" stroke="white" stroke-width="3" stroke-linecap="round" stroke-linejoin="round" shape-rendering="crispEdges"/>
<path d="M19.9565 13.9446C9.42168 5.40222 1.7671 16.6744 19.9565 32Z" stroke="#F9F9F9" stroke-width="3" stroke-linecap="round" stroke-linejoin="round" shape-rendering="crispEdges"/>
<path d="M19.9565 13.9446C9.42168 5.40222 1.7671 16.6744 19.9565 32Z" stroke="white" stroke-width="3" stroke-linecap="round" stroke-linejoin="round" shape-rendering="crispEdges"/>
<path d="M19.9565 13.9446C9.42168 5.40222 1.7671 16.6744 19.9565 32Z" stroke="#F9F9F9" stroke-width="3" stroke-linecap="round" stroke-linejoin="round" shape-rendering="crispEdges"/>
<path d="M19.9565 13.9446C30.4913 5.40222 38.1459 16.6744 19.9565 32Z" stroke="white" stroke-width="3" stroke-linecap="round" stroke-linejoin="round" shape-rendering="crispEdges"/>
<path d="M19.9565 13.9446C30.4913 5.40222 38.1459 16.6744 19.9565 32Z" stroke="#F9F9F9" stroke-width="3" stroke-linecap="round" stroke-linejoin="round" shape-rendering="crispEdges"/>
</g>
</g>
<defs>
<filter id="filter0_d_39_15" x="3.49948" y="9.5" width="32.914" height="32" filterUnits="userSpaceOnUse" color-interpolation-filters="sRGB">
<feFlood flood-opacity="0" result="BackgroundImageFix"/>
<feColorMatrix in="SourceAlpha" type="matrix" values="0 0 0 0 0 0 0 0 0 0 0 0 0 0 0 0 0 0 127 0" result="hardAlpha"/>
<feOffset dy="4"/>
<feGaussianBlur stdDeviation="2"/>
<feComposite in2="hardAlpha" operator="out"/>
<feColorMatrix type="matrix" values="0 0 0 0 0 0 0 0 0 0 0 0 0 0 0 0 0 0 0.25 0"/>
<feBlend mode="normal" in2="BackgroundImageFix" result="effect1_dropShadow_39_15"/>
<feBlend mode="normal" in="SourceGraphic" in2="effect1_dropShadow_39_15" result="shape"/>
</filter>
<clipPath id="clip0_39_15">
<rect width="40" height="40" rx="20" fill="white"/>
</clipPath>
</defs>
</svg>
