<svg width="25" height="25" viewBox="0 0 25 25" fill="none" xmlns="http://www.w3.org/2000/svg">
<path d="M4.48847 20.6407C5.68847 22.0857 7.92047 22.0857 12.3865 22.0857H13.1065C17.5725 22.0857 19.8055 22.0857 21.0055 20.6407M4.48847 20.6407C3.28847 19.1947 3.70047 17.0007 4.52347 12.6107C5.10847 9.49069 5.40047 7.92969 6.51147 7.00769M21.0055 20.6407C22.2055 19.1947 21.7935 17.0007 20.9705 12.6107C20.3855 9.49069 20.0925 7.92969 18.9815 7.00769M18.9815 7.00769C17.8715 6.08569 16.2825 6.08569 13.1075 6.08569H12.3855C9.21047 6.08569 7.62247 6.08569 6.51147 7.00769" stroke="black" stroke-width="1.5"/>
<path d="M9.74646 6.08569V5.08569C9.74646 4.29004 10.0625 3.52698 10.6251 2.96437C11.1877 2.40176 11.9508 2.08569 12.7465 2.08569C13.5421 2.08569 14.3052 2.40176 14.8678 2.96437C15.4304 3.52698 15.7465 4.29004 15.7465 5.08569V6.08569" stroke="black" stroke-width="1.5" stroke-linecap="round"/>
</svg>
