<svg width="40" height="40" viewBox="0 0 40 40" fill="none" xmlns="http://www.w3.org/2000/svg">
<rect width="40" height="40" rx="20" fill="black"/>
<path fill-rule="evenodd" clip-rule="evenodd" d="M17.4689 6.39809C17.3881 6.61716 17.3608 7.17194 17.4079 7.63125L17.4937 8.46632L13.7782 8.6114C10.293 8.74748 10.0298 8.79884 9.53134 9.44153C9.03175 10.0854 9 10.7171 9 19.982V29.8374L9.814 30.6856C10.6235 31.5287 10.6469 31.5337 13.9753 31.5337H17.3224L17.4082 32.7668L17.4937 34H18.7468H20L20.0724 20L20.1445 6H18.8799C18.0651 6 17.5633 6.1416 17.4689 6.39809ZM22.3671 9.9171V11.2228H25.4304H28.4937V19.2665C28.4937 27.1065 28.4806 27.2957 27.9782 26.738C27.695 26.4232 26.4201 24.8601 25.1455 23.2642C23.8706 21.6684 22.7241 20.3192 22.5974 20.2661C22.4707 20.2127 22.3671 22.7263 22.3671 25.8516V31.5337H25.8695C29.3692 31.5337 29.3726 31.5331 30.186 30.6856L31 29.8374V19.9922V10.1469L30.3172 9.37915C29.6457 8.62446 29.5722 8.6114 26.0007 8.6114H22.3671V9.9171ZM14.5799 23.8324C13.2839 25.479 12.1752 26.9765 12.1165 27.1599C12.0399 27.3995 12.7804 27.4698 14.7517 27.4097L17.4937 27.3264L17.5725 24.0622C17.6329 21.5491 17.5689 20.8026 17.294 20.8182C17.0974 20.8296 15.8763 22.1857 14.5799 23.8324Z" fill="white"/>
</svg>
