<svg width="50" height="50" viewBox="0 0 50 50" fill="none" xmlns="http://www.w3.org/2000/svg">
<path d="M25 33.9285C24.3008 33.9288 23.617 33.7239 23.0332 33.3391C22.4495 32.9544 21.9915 32.4068 21.716 31.7642C21.1399 31.6282 20.5727 31.4564 20.0178 31.2499L19.9875 31.2392C18.3581 30.6277 16.8543 29.7235 15.55 28.5714C13.8024 27.0298 12.4586 25.0841 11.6355 22.904C10.8125 20.7239 10.5352 18.3755 10.828 16.0637C11.1207 13.7519 11.9745 11.5467 13.315 9.6406C14.6555 7.73445 16.442 6.18517 18.5186 5.12783C20.5952 4.07049 22.8989 3.5372 25.2289 3.57446C27.5589 3.61172 29.8444 4.2184 31.8862 5.3416C33.9279 6.4648 35.6639 8.07042 36.9428 10.0185C38.2216 11.9665 39.0045 14.1978 39.2232 16.5178C39.2928 17.2553 38.6875 17.8571 37.9464 17.8571C37.2071 17.8571 36.616 17.2553 36.5303 16.5196C36.2943 14.4898 35.5265 12.5582 34.3046 10.9202C33.0827 9.28225 31.4501 7.99588 29.5717 7.19116C27.6933 6.38645 25.6357 6.09191 23.607 6.33732C21.5782 6.58273 19.6503 7.35939 18.0179 8.58879C16.3856 9.81819 15.1067 11.4568 14.3107 13.3388C13.5146 15.2209 13.2295 17.2798 13.4843 19.3074C13.739 21.335 14.5246 23.2594 15.7615 24.886C16.9984 26.5127 18.6428 27.784 20.5285 28.5714L20.6 28.6017C20.9571 28.7482 21.3238 28.8773 21.7 28.9892C22.044 28.1511 22.6937 27.475 23.5175 27.0979C24.3413 26.7208 25.2776 26.6709 26.1368 26.9583C26.9961 27.2456 27.7139 27.8489 28.1451 28.6457C28.5762 29.4426 28.6884 30.3735 28.4589 31.2499C28.2609 32.0167 27.8137 32.696 27.1876 33.1808C26.5614 33.6657 25.7919 33.9287 25 33.9285ZM12.5 31.2499H14.5875C13.5891 30.4718 12.68 29.5854 11.8768 28.6071C10.5727 28.7598 9.37009 29.3862 8.49739 30.3672C7.6247 31.3482 7.14266 32.6155 7.14282 33.9285V35.2053C7.14282 41.8446 14.6607 46.4285 25 46.4285C35.3393 46.4285 42.8571 41.5928 42.8571 35.2053V33.9285C42.8571 32.5077 42.2927 31.1451 41.288 30.1404C40.2834 29.1358 38.9208 28.5714 37.5 28.5714H30.991C31.2498 29.4394 31.3169 30.3534 31.1875 31.2499H37.5L37.7589 31.2624C38.4214 31.3268 39.0361 31.6355 39.4835 32.1283C39.9308 32.6212 40.1786 33.2629 40.1785 33.9285V35.2053L40.1696 35.4928C39.9196 39.9928 33.7964 43.7499 25 43.7499C15.8732 43.7499 9.82139 39.9803 9.82139 35.2053V33.9285L9.83389 33.6696C9.89823 33.0071 10.2069 32.3923 10.6998 31.945C11.1926 31.4977 11.8344 31.2499 12.5 31.2499ZM33.9285 17.8571C33.9288 19.4746 33.4897 21.0617 32.6581 22.449C31.8266 23.8364 30.6338 24.9717 29.2071 25.7339C28.0561 24.6868 26.556 24.1067 25 24.1071C25.8207 24.1071 26.6335 23.9454 27.3917 23.6313C28.15 23.3172 28.839 22.8569 29.4194 22.2765C29.9998 21.6961 30.4601 21.0071 30.7742 20.2489C31.0883 19.4906 31.25 18.6779 31.25 17.8571C31.25 17.0363 31.0883 16.2236 30.7742 15.4653C30.4601 14.707 29.9998 14.018 29.4194 13.4377C28.839 12.8573 28.15 12.3969 27.3917 12.0828C26.6335 11.7688 25.8207 11.6071 25 11.6071C23.3424 11.6071 21.7527 12.2656 20.5805 13.4377C19.4084 14.6098 18.75 16.1995 18.75 17.8571C18.75 19.5147 19.4084 21.1044 20.5805 22.2765C21.7527 23.4486 23.3424 24.1071 25 24.1071C23.3785 24.1071 21.9035 24.7249 20.7946 25.7357C19.3687 24.9741 18.1763 23.8397 17.3446 22.4535C16.6365 21.2738 16.2106 19.9465 16.1002 18.575C15.9898 17.2036 16.1978 15.8252 16.708 14.5474C17.2183 13.2696 18.0169 12.127 19.0416 11.2088C20.0663 10.2907 21.2893 9.62171 22.6152 9.25422C23.9411 8.88673 25.334 8.83064 26.6852 9.09033C28.0363 9.35002 29.3092 9.91845 30.4044 10.7513C31.4996 11.5841 32.3875 12.6587 32.9988 13.8914C33.6102 15.124 33.9283 16.4812 33.9285 17.8571Z" fill="#FF8225"/>
</svg>
