<svg width="118" height="118" viewBox="0 0 118 118" fill="none" xmlns="http://www.w3.org/2000/svg">
<path d="M19.0275 59.0492L8.60413 51.6004M36.1375 71.2916L23.1329 61.9746M9.11546 42.7111L48.7364 36.5849M56.7235 72.7863H51.8511V68.6489H53.8965V65.1016" stroke="#FF8225" stroke-width="3" stroke-linecap="round" stroke-linejoin="round"/>
<path d="M59.0001 74.5711C60.2967 74.5711 61.3478 73.52 61.3478 72.2234C61.3478 70.9268 60.2967 69.8757 59.0001 69.8757C57.7034 69.8757 56.6523 70.9268 56.6523 72.2234C56.6523 73.52 57.7034 74.5711 59.0001 74.5711Z" stroke="#FF8225" stroke-width="3" stroke-linecap="round" stroke-linejoin="round"/>
<path d="M52.3108 46.5928L49.4001 48.584V54.1079" stroke="#FF8225" stroke-width="3" stroke-linecap="round" stroke-linejoin="round"/>
<path d="M24.5341 61.9746L48.9405 55.2731L30.916 48.9405L32.654 47.4089L49.4002 51.7995M49.4002 59.6146C48.9921 59.7645 24.5341 67.4247 24.5341 67.4247M17.3853 67.4247L22.3388 81.4151M24.5341 60.5733C24.5341 61.1387 23.9933 61.655 23.1329 61.9746C22.5429 62.1958 21.7808 62.3433 20.9695 62.3433C18.9783 62.3433 17.3804 61.5566 17.3804 60.5733C17.3804 59.9341 18.0441 59.3687 19.0275 59.0491C19.5929 58.8771 20.2566 58.7787 20.9695 58.7787C22.9362 58.7787 24.5341 59.5654 24.5341 60.5733Z" stroke="#FF8225" stroke-width="3" stroke-linecap="round" stroke-linejoin="round"/>
<path d="M17.3854 60.5635V67.4247C17.3854 68.9439 18.9858 69.2119 20.9598 69.2119C22.9338 69.2119 24.5342 68.4129 24.5342 67.4247V60.5659M28.1603 53.0262L27.5703 48.9872M98.9725 59.0492L109.396 51.6004M98.9725 59.0492C99.9559 59.3687 100.62 59.9341 100.62 60.5733C100.62 61.5566 99.0217 62.3433 97.0305 62.3433C96.2192 62.3433 95.4571 62.1958 94.8671 61.9746M98.9725 59.0492C98.4071 58.8771 97.7434 58.7787 97.0305 58.7787C95.0638 58.7787 93.4659 59.5654 93.4659 60.5733C93.4659 61.1387 94.0067 61.655 94.8671 61.9746M81.8625 71.2916L94.8671 61.9746M108.885 42.7111L69.2636 36.5849M61.2765 72.7863H66.1489V68.6489H64.1035V65.1016M65.6892 46.5928L68.5998 48.584V54.1079M93.4659 61.9746L69.0595 55.2731L87.0816 48.9405L85.346 47.4089L68.5998 51.7995M68.5998 59.6146C69.0079 59.7645 93.4659 67.4247 93.4659 67.4247M100.615 67.4247L95.6612 81.4151M31.6314 40.7714C31.6314 40.1519 30.626 39.648 29.3845 39.648C28.143 39.648 27.14 40.1519 27.14 40.7714V48.3308C27.14 48.9503 28.1455 49.4543 29.3845 49.4543C30.6235 49.4543 31.6314 48.9503 31.6314 48.3308V40.7714Z" stroke="#FF8225" stroke-width="3" stroke-linecap="round" stroke-linejoin="round"/>
<path d="M100.615 60.5635V67.4247C100.615 68.944 99.0143 69.2119 97.0403 69.2119C95.0663 69.2119 93.4659 68.413 93.4659 67.4247V60.566M89.8398 53.0263L90.4298 48.9872M86.3687 40.7715C86.3687 40.152 87.3741 39.648 88.6156 39.648C89.8571 39.648 90.8625 40.152 90.8625 40.7715L90.86 48.3308C90.86 48.9503 89.8546 49.4543 88.6156 49.4543C87.3766 49.4543 86.3687 48.9503 86.3687 48.3308V40.7715ZM64.3617 60.8388L69.0595 57.4685V54.4545L65.6892 51.9028V45.0613L63.6463 42.0473H54.3538L52.3109 45.0613V51.9028L48.9406 54.4545V57.4685L53.6384 60.8388H64.3617Z" stroke="#FF8225" stroke-width="3" stroke-linecap="round" stroke-linejoin="round"/>
<path d="M68.5997 57.7979V62.626L66.1217 65.1016H51.8781L49.4001 62.626V57.7979M65.6891 50.3491H52.3108" stroke="#FF8225" stroke-width="3" stroke-linecap="round" stroke-linejoin="round"/>
</svg>
