<svg width="76" height="76" viewBox="0 0 76 76" fill="none" xmlns="http://www.w3.org/2000/svg">
<path d="M66.8626 47.5V38C66.8626 34.2573 66.1254 30.5513 64.6931 27.0935C63.2609 23.6357 61.1616 20.4939 58.5151 17.8475C55.8686 15.201 52.7268 13.1017 49.269 11.6694C45.8112 10.2372 42.1052 9.5 38.3625 9.5C34.6199 9.5 30.9139 10.2372 27.4561 11.6694C23.9983 13.1017 20.8565 15.201 18.21 17.8475C15.5635 20.4939 13.4642 23.6357 12.032 27.0935C10.5997 30.5513 9.86255 34.2573 9.86255 38V47.5" stroke="#FF8225" stroke-width="4" stroke-linecap="round"/>
<mask id="path-2-inside-1_13_180" fill="white">
<path d="M9.16025 47.531V45.832H7.54193V47.531H9.16025ZM9.16025 49.2301H18.8702V45.832H9.16025V49.2301ZM20.4885 50.9291V61.1232H23.7251V50.9291H20.4885ZM10.7786 61.1232V47.531H7.54193V61.1232H10.7786ZM15.6335 66.2203C14.3459 66.2203 13.111 65.6832 12.2006 64.7274C11.2901 63.7715 10.7786 62.475 10.7786 61.1232H7.54193C7.54193 63.3762 8.39444 65.537 9.91191 67.1301C11.4294 68.7233 13.4875 69.6183 15.6335 69.6183V66.2203ZM20.4885 61.1232C20.4885 62.475 19.977 63.7715 19.0665 64.7274C18.156 65.6832 16.9212 66.2203 15.6335 66.2203V69.6183C17.7796 69.6183 19.8377 68.7233 21.3552 67.1301C22.8726 65.537 23.7251 63.3762 23.7251 61.1232H20.4885ZM18.8702 49.2301C19.2994 49.2301 19.711 49.4091 20.0145 49.7277C20.318 50.0463 20.4885 50.4785 20.4885 50.9291H23.7251C23.7251 49.5773 23.2136 48.2808 22.3032 47.3249C21.3927 46.369 20.1578 45.832 18.8702 45.832V49.2301ZM67.4198 47.531H69.0381V45.832H67.4198V47.531ZM57.7099 49.2301H67.4198V45.832H57.7099V49.2301ZM65.8015 47.531V61.1232H69.0381V47.531H65.8015ZM56.0916 61.1232V50.9291H52.8549V61.1232H56.0916ZM60.9465 66.2203C59.6589 66.2203 58.424 65.6832 57.5135 64.7274C56.6031 63.7715 56.0916 62.475 56.0916 61.1232H52.8549C52.8549 63.3762 53.7074 65.537 55.2249 67.1301C56.7424 68.7233 58.8005 69.6183 60.9465 69.6183V66.2203ZM65.8015 61.1232C65.8015 62.475 65.29 63.7715 64.3795 64.7274C63.469 65.6832 62.2341 66.2203 60.9465 66.2203V69.6183C63.0925 69.6183 65.1507 68.7233 66.6681 67.1301C68.1856 65.537 69.0381 63.3762 69.0381 61.1232H65.8015ZM57.7099 45.832C56.4223 45.832 55.1874 46.369 54.2769 47.3249C53.3664 48.2808 52.8549 49.5773 52.8549 50.9291H56.0916C56.0916 50.4785 56.2621 50.0463 56.5655 49.7277C56.869 49.4091 57.2807 49.2301 57.7099 49.2301V45.832Z"/>
</mask>
<path d="M9.16025 47.531V45.832H7.54193V47.531H9.16025ZM9.16025 49.2301H18.8702V45.832H9.16025V49.2301ZM20.4885 50.9291V61.1232H23.7251V50.9291H20.4885ZM10.7786 61.1232V47.531H7.54193V61.1232H10.7786ZM15.6335 66.2203C14.3459 66.2203 13.111 65.6832 12.2006 64.7274C11.2901 63.7715 10.7786 62.475 10.7786 61.1232H7.54193C7.54193 63.3762 8.39444 65.537 9.91191 67.1301C11.4294 68.7233 13.4875 69.6183 15.6335 69.6183V66.2203ZM20.4885 61.1232C20.4885 62.475 19.977 63.7715 19.0665 64.7274C18.156 65.6832 16.9212 66.2203 15.6335 66.2203V69.6183C17.7796 69.6183 19.8377 68.7233 21.3552 67.1301C22.8726 65.537 23.7251 63.3762 23.7251 61.1232H20.4885ZM18.8702 49.2301C19.2994 49.2301 19.711 49.4091 20.0145 49.7277C20.318 50.0463 20.4885 50.4785 20.4885 50.9291H23.7251C23.7251 49.5773 23.2136 48.2808 22.3032 47.3249C21.3927 46.369 20.1578 45.832 18.8702 45.832V49.2301ZM67.4198 47.531H69.0381V45.832H67.4198V47.531ZM57.7099 49.2301H67.4198V45.832H57.7099V49.2301ZM65.8015 47.531V61.1232H69.0381V47.531H65.8015ZM56.0916 61.1232V50.9291H52.8549V61.1232H56.0916ZM60.9465 66.2203C59.6589 66.2203 58.424 65.6832 57.5135 64.7274C56.6031 63.7715 56.0916 62.475 56.0916 61.1232H52.8549C52.8549 63.3762 53.7074 65.537 55.2249 67.1301C56.7424 68.7233 58.8005 69.6183 60.9465 69.6183V66.2203ZM65.8015 61.1232C65.8015 62.475 65.29 63.7715 64.3795 64.7274C63.469 65.6832 62.2341 66.2203 60.9465 66.2203V69.6183C63.0925 69.6183 65.1507 68.7233 66.6681 67.1301C68.1856 65.537 69.0381 63.3762 69.0381 61.1232H65.8015ZM57.7099 45.832C56.4223 45.832 55.1874 46.369 54.2769 47.3249C53.3664 48.2808 52.8549 49.5773 52.8549 50.9291H56.0916C56.0916 50.4785 56.2621 50.0463 56.5655 49.7277C56.869 49.4091 57.2807 49.2301 57.7099 49.2301V45.832Z" fill="#FF8225"/>
<path d="M18.8702 49.2301H22.8702V45.832H18.8702H14.8702V49.2301H18.8702ZM20.4885 61.1232V65.1232H23.7251V61.1232V57.1232H20.4885V61.1232ZM23.7251 50.9291V46.9291H20.4885V50.9291V54.9291H23.7251V50.9291ZM7.54193 61.1232V65.1232H10.7786V61.1232V57.1232H7.54193V61.1232ZM15.6335 69.6183H19.6335V66.2203H15.6335H11.6335V69.6183H15.6335ZM57.7099 45.832H53.7099V49.2301H57.7099H61.7099V45.832H57.7099ZM65.8015 61.1232V65.1232H69.0381V61.1232V57.1232H65.8015V61.1232ZM56.0916 50.9291V46.9291H52.8549V50.9291V54.9291H56.0916V50.9291ZM52.8549 61.1232V65.1232H56.0916V61.1232V57.1232H52.8549V61.1232ZM60.9465 69.6183H64.9465V66.2203H60.9465H56.9465V69.6183H60.9465ZM9.16025 47.531V55.531H17.1603V47.531H9.16025ZM7.54193 45.832V37.832H-0.458069V45.832H7.54193ZM9.16025 49.2301H1.16025V57.2301H9.16025V49.2301ZM18.8702 45.832V37.832V45.832ZM23.7251 61.1232H31.7251H23.7251ZM10.7786 47.531H18.7786V39.531H10.7786V47.531ZM7.54193 61.1232H-0.458069H7.54193ZM67.4198 47.531H59.4198V55.531H67.4198V47.531ZM69.0381 45.832H77.0381V37.832H69.0381V45.832ZM67.4198 49.2301V57.2301H75.4198V49.2301H67.4198ZM57.7099 45.832V37.832V45.832ZM65.8015 47.531V39.531H57.8015V47.531H65.8015ZM69.0381 61.1232H77.0381H69.0381ZM52.8549 61.1232H44.8549H52.8549ZM60.9465 69.6183V77.6183V69.6183ZM9.16025 47.531H17.1603V45.832H9.16025H1.16025V47.531H9.16025ZM9.16025 45.832V37.832H7.54193V45.832V53.832H9.16025V45.832ZM7.54193 45.832H-0.458069V47.531H7.54193H15.5419V45.832H7.54193ZM7.54193 47.531V55.531H9.16025V47.531V39.531H7.54193V47.531ZM9.16025 49.2301V57.2301H18.8702V49.2301V41.2301H9.16025V49.2301ZM18.8702 45.832V37.832H9.16025V45.832V53.832H18.8702V45.832ZM9.16025 45.832H1.16025V49.2301H9.16025H17.1603V45.832H9.16025ZM20.4885 50.9291H12.4885V61.1232H20.4885H28.4885V50.9291H20.4885ZM23.7251 61.1232H31.7251V50.9291H23.7251H15.7251V61.1232H23.7251ZM10.7786 61.1232H18.7786V47.531H10.7786H2.77857V61.1232H10.7786ZM10.7786 47.531V39.531H7.54193V47.531V55.531H10.7786V47.531ZM7.54193 47.531H-0.458069V61.1232H7.54193H15.5419V47.531H7.54193ZM15.6335 66.2203V58.2203C16.5967 58.2203 17.4369 58.6256 17.9933 59.2097L12.2006 64.7274L6.40781 70.245C8.7852 72.7409 12.0951 74.2203 15.6335 74.2203V66.2203ZM12.2006 64.7274L17.9933 59.2097C18.5371 59.7807 18.7786 60.4755 18.7786 61.1232H10.7786H2.77857C2.77857 64.4745 4.04302 67.7623 6.40781 70.245L12.2006 64.7274ZM7.54193 61.1232H-0.458069C-0.458069 65.3758 1.14737 69.5278 4.11916 72.6477L9.91191 67.1301L15.7047 61.6125C15.6415 61.5462 15.5419 61.3767 15.5419 61.1232H7.54193ZM9.91191 67.1301L4.11916 72.6477C7.10354 75.781 11.2367 77.6183 15.6335 77.6183V69.6183V61.6183C15.6538 61.6183 15.6734 61.6205 15.6907 61.6241C15.7077 61.6277 15.72 61.6321 15.7274 61.6353C15.7432 61.6422 15.7322 61.6415 15.7047 61.6125L9.91191 67.1301ZM20.4885 61.1232H12.4885C12.4885 60.4755 12.7299 59.7807 13.2738 59.2097L19.0665 64.7274L24.8593 70.245C27.2241 67.7623 28.4885 64.4745 28.4885 61.1232H20.4885ZM19.0665 64.7274L13.2738 59.2097C13.8302 58.6256 14.6703 58.2203 15.6335 58.2203V66.2203V74.2203C19.172 74.2203 22.4819 72.7409 24.8593 70.245L19.0665 64.7274ZM15.6335 69.6183V77.6183C20.0304 77.6183 24.1635 75.781 27.1479 72.6477L21.3552 67.1301L15.5624 61.6125C15.5348 61.6415 15.5238 61.6422 15.5397 61.6353C15.5471 61.6321 15.5594 61.6277 15.5764 61.6241C15.5937 61.6205 15.6132 61.6183 15.6335 61.6183V69.6183ZM21.3552 67.1301L27.1479 72.6477C30.1197 69.5278 31.7251 65.3758 31.7251 61.1232H23.7251H15.7251C15.7251 61.3767 15.6256 61.5462 15.5624 61.6125L21.3552 67.1301ZM18.8702 49.2301V57.2301C17.0486 57.2301 15.3852 56.4668 14.2218 55.2453L20.0145 49.7277L25.8073 44.2101C24.0368 42.3514 21.5502 41.2301 18.8702 41.2301V49.2301ZM20.0145 49.7277L14.2218 55.2453C13.0709 54.0371 12.4885 52.478 12.4885 50.9291H20.4885H28.4885C28.4885 48.479 27.5651 46.0555 25.8073 44.2101L20.0145 49.7277ZM23.7251 50.9291H31.7251C31.7251 47.5777 30.4607 44.29 28.0959 41.8073L22.3032 47.3249L16.5104 52.8425C15.9666 52.2716 15.7251 51.5768 15.7251 50.9291H23.7251ZM22.3032 47.3249L28.0959 41.8073C25.7185 39.3114 22.4086 37.832 18.8702 37.832V45.832V53.832C17.907 53.832 17.0668 53.4267 16.5104 52.8425L22.3032 47.3249ZM67.4198 47.531V55.531H69.0381V47.531V39.531H67.4198V47.531ZM69.0381 47.531H77.0381V45.832H69.0381H61.0381V47.531H69.0381ZM69.0381 45.832V37.832H67.4198V45.832V53.832H69.0381V45.832ZM67.4198 45.832H59.4198V47.531H67.4198H75.4198V45.832H67.4198ZM57.7099 49.2301V57.2301H67.4198V49.2301V41.2301H57.7099V49.2301ZM67.4198 49.2301H75.4198V45.832H67.4198H59.4198V49.2301H67.4198ZM67.4198 45.832V37.832H57.7099V45.832V53.832H67.4198V45.832ZM65.8015 47.531H57.8015V61.1232H65.8015H73.8015V47.531H65.8015ZM69.0381 61.1232H77.0381V47.531H69.0381H61.0381V61.1232H69.0381ZM69.0381 47.531V39.531H65.8015V47.531V55.531H69.0381V47.531ZM56.0916 61.1232H64.0916V50.9291H56.0916H48.0916V61.1232H56.0916ZM52.8549 50.9291H44.8549V61.1232H52.8549H60.8549V50.9291H52.8549ZM60.9465 66.2203V58.2203C61.9097 58.2203 62.7499 58.6256 63.3063 59.2097L57.5135 64.7274L51.7208 70.245C54.0982 72.7409 57.4081 74.2203 60.9465 74.2203V66.2203ZM57.5135 64.7274L63.3063 59.2097C63.8501 59.7807 64.0916 60.4755 64.0916 61.1232H56.0916H48.0916C48.0916 64.4746 49.356 67.7623 51.7208 70.245L57.5135 64.7274ZM52.8549 61.1232H44.8549C44.8549 65.3758 46.4604 69.5278 49.4321 72.6477L55.2249 67.1301L61.0176 61.6125C60.9545 61.5462 60.8549 61.3767 60.8549 61.1232H52.8549ZM55.2249 67.1301L49.4321 72.6477C52.4165 75.781 56.5497 77.6183 60.9465 77.6183V69.6183V61.6183C60.9668 61.6183 60.9863 61.6205 61.0036 61.6241C61.0207 61.6277 61.033 61.6321 61.0403 61.6353C61.0562 61.6422 61.0452 61.6415 61.0176 61.6125L55.2249 67.1301ZM65.8015 61.1232H57.8015C57.8015 60.4755 58.0429 59.7807 58.5867 59.2097L64.3795 64.7274L70.1722 70.245C72.537 67.7623 73.8015 64.4746 73.8015 61.1232H65.8015ZM64.3795 64.7274L58.5867 59.2097C59.1432 58.6256 59.9833 58.2203 60.9465 58.2203V66.2203V74.2203C64.485 74.2203 67.7949 72.7409 70.1722 70.245L64.3795 64.7274ZM60.9465 69.6183V77.6183C65.3434 77.6183 69.4765 75.781 72.4609 72.6477L66.6681 67.1301L60.8754 61.6125C60.8478 61.6415 60.8368 61.6422 60.8527 61.6353C60.8601 61.6321 60.8723 61.6277 60.8894 61.6241C60.9067 61.6205 60.9262 61.6183 60.9465 61.6183V69.6183ZM66.6681 67.1301L72.4609 72.6477C75.4327 69.5278 77.0381 65.3758 77.0381 61.1232H69.0381H61.0381C61.0381 61.3767 60.9385 61.5462 60.8754 61.6125L66.6681 67.1301ZM57.7099 45.832V37.832C54.1714 37.832 50.8615 39.3114 48.4841 41.8073L54.2769 47.3249L60.0696 52.8425C59.5132 53.4267 58.6731 53.832 57.7099 53.832V45.832ZM54.2769 47.3249L48.4841 41.8073C46.1194 44.29 44.8549 47.5777 44.8549 50.9291H52.8549H60.8549C60.8549 51.5768 60.6135 52.2716 60.0696 52.8425L54.2769 47.3249ZM56.0916 50.9291H64.0916C64.0916 52.478 63.5091 54.0371 62.3583 55.2453L56.5655 49.7277L50.7728 44.2101C49.015 46.0556 48.0916 48.479 48.0916 50.9291H56.0916ZM56.5655 49.7277L62.3583 55.2453C61.1949 56.4668 59.5315 57.2301 57.7099 57.2301V49.2301V41.2301C55.0299 41.2301 52.5432 42.3514 50.7728 44.2101L56.5655 49.7277Z" fill="#FF8225" mask="url(#path-2-inside-1_13_180)"/>
</svg>
