<svg width="50" height="50" viewBox="0 0 50 50" fill="none" xmlns="http://www.w3.org/2000/svg">
<path d="M28.3542 25.5062C28.3416 26.1662 28.1334 26.8076 27.7558 27.3491C27.3783 27.8905 26.8486 28.3078 26.2337 28.5478C25.6188 28.7879 24.9465 28.8399 24.3019 28.6975C23.6574 28.555 23.0697 28.2243 22.6133 27.7475C22.1569 27.2706 21.8523 26.6689 21.7383 26.0188C21.6242 25.3686 21.7057 24.6992 21.9725 24.0954C22.2393 23.4917 22.6794 22.9807 23.2369 22.6273C23.7944 22.2739 24.4443 22.094 25.1042 22.1104C25.9811 22.1429 26.8108 22.5156 27.4175 23.1495C28.0242 23.7835 28.3602 24.6288 28.3542 25.5062Z" fill="white"/>
<path d="M30.7562 15.0688H19.4542C18.3358 15.0688 17.2633 15.5131 16.4725 16.3039C15.6817 17.0947 15.2375 18.1672 15.2375 19.2855V30.8418C15.2375 31.3955 15.3466 31.9438 15.5585 32.4554C15.7704 32.967 16.081 33.4318 16.4725 33.8234C16.8641 34.215 17.3289 34.5256 17.8405 34.7375C18.3521 34.9494 18.9004 35.0584 19.4542 35.0584H30.7562C31.31 35.0584 31.8583 34.9494 32.3699 34.7375C32.8815 34.5256 33.3463 34.215 33.7379 33.8234C34.1294 33.4318 34.44 32.967 34.6519 32.4554C34.8638 31.9438 34.9729 31.3955 34.9729 30.8418V19.3063C34.9751 18.751 34.8677 18.2007 34.6568 17.6869C34.4459 17.1732 34.1357 16.7061 33.744 16.3125C33.3523 15.9188 32.8868 15.6063 32.3741 15.3929C31.8614 15.1795 31.3116 15.0694 30.7562 15.0688ZM25.1042 31.1584C23.9853 31.1837 22.8844 30.875 21.9417 30.2718C20.9991 29.6686 20.2576 28.7982 19.8118 27.7717C19.3661 26.7452 19.2363 25.6091 19.439 24.5086C19.6417 23.408 20.1677 22.3927 20.95 21.5924C21.7322 20.7921 22.7352 20.243 23.8309 20.0152C24.9266 19.7875 26.0653 19.8913 27.1017 20.3135C28.1381 20.7358 29.0252 21.4572 29.6497 22.3858C30.2743 23.3144 30.608 24.4081 30.6083 25.5272C30.6174 26.2585 30.4822 26.9845 30.2103 27.6635C29.9385 28.3426 29.5354 28.9613 29.0242 29.4844C28.5129 30.0074 27.9035 30.4245 27.2309 30.7118C26.5582 30.999 25.8355 31.1508 25.1042 31.1584ZM31.2208 19.898C31.0834 19.898 30.9473 19.8706 30.8205 19.8174C30.6938 19.7642 30.5789 19.6862 30.4827 19.588C30.3864 19.4899 30.3108 19.3735 30.2601 19.2457C30.2094 19.1179 30.1847 18.9813 30.1875 18.8438C30.1875 18.5643 30.2985 18.2961 30.4962 18.0984C30.6939 17.9007 30.9621 17.7897 31.2417 17.7897C31.5212 17.7897 31.7894 17.9007 31.9871 18.0984C32.1848 18.2961 32.2958 18.5643 32.2958 18.8438C32.3 18.9927 32.2719 19.1406 32.2135 19.2776C32.1552 19.4146 32.0679 19.5373 31.9577 19.6374C31.8475 19.7375 31.717 19.8127 31.575 19.8576C31.4331 19.9026 31.2831 19.9164 31.1354 19.898H31.2208Z" fill="white"/>
<path d="M25.1041 4.16676C19.5788 4.13914 14.2688 6.30758 10.3422 10.195C6.4157 14.0825 4.19427 19.3706 4.16664 24.8959C4.13902 30.4213 6.30745 35.7313 10.1949 39.6578C14.0824 43.5844 19.3705 45.8058 24.8958 45.8334C27.6317 45.8471 30.3435 45.3218 32.8763 44.2874C35.4092 43.2531 37.7135 41.73 39.6577 39.8051C41.6019 37.8803 43.148 35.5913 44.2076 33.0689C45.2672 30.5465 45.8196 27.8401 45.8333 25.1043C45.847 22.3684 45.3217 19.6566 44.2873 17.1238C43.253 14.5909 41.7299 12.2866 39.805 10.3424C37.8801 8.39814 35.5912 6.85208 33.0688 5.79247C30.5464 4.73286 27.84 4.18044 25.1041 4.16676ZM37.7562 30.6293C37.762 31.5639 37.5823 32.4904 37.2273 33.3551C36.8724 34.2197 36.3493 35.0053 35.6885 35.6663C35.0277 36.3274 34.2423 36.8506 33.3777 37.2058C32.5132 37.561 31.5867 37.7411 30.6521 37.7355H19.5604C18.6257 37.7413 17.6992 37.5615 16.8346 37.2066C15.9699 36.8517 15.1843 36.3286 14.5233 35.6678C13.8623 35.007 13.339 34.2216 12.9838 33.357C12.6287 32.4925 12.4486 31.566 12.4541 30.6313V19.5376C12.4483 18.6029 12.6281 17.6764 12.983 16.8118C13.338 15.9471 13.861 15.1615 14.5218 14.5005C15.1826 13.8395 15.9681 13.3162 16.8326 12.9611C17.6972 12.6059 18.6237 12.4258 19.5583 12.4313H30.6521C31.5865 12.4258 32.5128 12.6058 33.3772 12.9609C34.2416 13.3159 35.027 13.839 35.6878 14.4998C36.3486 15.1606 36.8717 15.9459 37.2267 16.8103C37.5818 17.6748 37.7618 18.601 37.7562 19.5355V30.6293Z" fill="white"/>
</svg>
