<svg width="95" height="96" viewBox="0 0 95 96" fill="none" xmlns="http://www.w3.org/2000/svg">
<path d="M74.6429 61.5714V25.3131C74.6429 24.1133 74.1663 22.9627 73.3179 22.1143C72.4695 21.2659 71.3189 20.7893 70.1191 20.7893H20.3572C19.1574 20.7893 18.0067 21.2659 17.1583 22.1143C16.31 22.9627 15.8334 24.1133 15.8334 25.3131V61.5714M74.6429 61.5714H15.8334M74.6429 61.5714L80.4153 73.1207C80.7598 73.8103 80.9225 74.5764 80.8878 75.3464C80.8531 76.1165 80.6222 76.8649 80.2171 77.5206C79.8119 78.1764 79.246 78.7177 78.5728 79.0933C77.8997 79.4689 77.1418 79.6663 76.371 79.6667H14.1053C13.3344 79.6663 12.5765 79.4689 11.9034 79.0933C11.2303 78.7177 10.6643 78.1764 10.2591 77.5206C9.85399 76.8649 9.62313 76.1165 9.58844 75.3464C9.55376 74.5764 9.71642 73.8103 10.061 73.1207L15.8334 61.5714" stroke="#FF8225" stroke-width="5" stroke-linecap="round" stroke-linejoin="round"/>
</svg>
