<svg width="88" height="88" viewBox="0 0 88 88" fill="none" xmlns="http://www.w3.org/2000/svg">
<path fill-rule="evenodd" clip-rule="evenodd" d="M63.575 2.67499H24.425C22.6945 2.67499 21.0348 3.36244 19.8111 4.58612C18.5874 5.80979 17.9 7.46945 17.9 9.19999V78.8C17.9 80.5305 18.5874 82.1902 19.8111 83.4139C21.0348 84.6375 22.6945 85.325 24.425 85.325H63.575C65.3055 85.325 66.9652 84.6375 68.1889 83.4139C69.4125 82.1902 70.1 80.5305 70.1 78.8V9.19999C70.1 7.46945 69.4125 5.80979 68.1889 4.58612C66.9652 3.36244 65.3055 2.67499 63.575 2.67499ZM22.25 9.19999C22.25 8.62314 22.4791 8.06992 22.887 7.66203C23.2949 7.25414 23.8481 7.02499 24.425 7.02499H63.575C64.1518 7.02499 64.7051 7.25414 65.113 7.66203C65.5208 8.06992 65.75 8.62314 65.75 9.19999V78.8C65.75 79.3768 65.5208 79.9301 65.113 80.3379C64.7051 80.7458 64.1518 80.975 63.575 80.975H24.425C23.8481 80.975 23.2949 80.7458 22.887 80.3379C22.4791 79.9301 22.25 79.3768 22.25 78.8V9.19999Z" fill="#FF8225"/>
<path d="M44 78.8C42.8463 78.8 41.7399 78.3417 40.9241 77.5259C40.1083 76.7101 39.65 75.6037 39.65 74.45C39.65 73.2963 40.1083 72.1898 40.9241 71.3741C41.7399 70.5583 42.8463 70.1 44 70.1C45.1537 70.1 46.2601 70.5583 47.0759 71.3741C47.8917 72.1898 48.35 73.2963 48.35 74.45C48.35 75.6037 47.8917 76.7101 47.0759 77.5259C46.2601 78.3417 45.1537 78.8 44 78.8Z" fill="#FF8225"/>
</svg>
