<svg width="50" height="50" viewBox="0 0 50 50" fill="none" xmlns="http://www.w3.org/2000/svg">
<path fill-rule="evenodd" clip-rule="evenodd" d="M23.4125 5.83127C22.1333 6.00002 20.5542 6.36252 18.3083 6.88127L15.7479 7.47293C13.8521 7.91043 12.5438 8.2146 11.5458 8.55627C10.5813 8.88752 10.0354 9.21252 9.62501 9.62502C9.21251 10.0354 8.88751 10.5813 8.55626 11.5458C8.21459 12.5438 7.91043 13.85 7.47293 15.7479L6.88126 18.3063C6.36251 20.5542 6.00001 22.1334 5.83126 23.4125C5.66459 24.6583 5.70418 25.5021 5.92501 26.2688C6.14376 27.0354 6.55834 27.7708 7.35834 28.7396C8.18126 29.7354 9.32501 30.8834 10.9563 32.5146L14.7688 36.3271C17.6 39.1583 19.6146 41.1688 21.3479 42.4896C23.0438 43.7854 24.2854 44.2708 25.5458 44.2708C26.8063 44.2708 28.0479 43.7854 29.7458 42.4896C31.4771 41.1688 33.4938 39.1563 36.325 36.325C39.1583 33.4917 41.1688 31.4771 42.4917 29.7458C43.7833 28.0479 44.2708 26.8083 44.2708 25.5459C44.2708 24.2854 43.7854 23.0458 42.4896 21.3479C41.1688 19.6146 39.1563 17.5979 36.325 14.7667L32.5125 10.9542C30.8833 9.32502 29.7354 8.18127 28.7417 7.35835C27.7708 6.55835 27.0354 6.14377 26.2688 5.92502C25.5021 5.70418 24.6583 5.66668 23.4146 5.83127M23.0063 2.73335C24.5 2.53543 25.8104 2.54168 27.1313 2.92085C28.4542 3.30002 29.5688 3.9896 30.7313 4.94793C31.8563 5.8771 33.1063 7.1271 34.6708 8.69168L38.6208 12.6417C41.35 15.3708 43.5125 17.5334 44.975 19.4542C46.4833 21.4271 47.3979 23.3271 47.3979 25.5459C47.3979 27.7667 46.4833 29.6667 44.9771 31.6396C43.5125 33.5604 41.3521 35.7229 38.6208 38.4521L38.4542 38.6188C35.725 41.3479 33.5625 43.5104 31.6417 44.9729C29.6688 46.4813 27.7667 47.3958 25.5479 47.3958C23.3292 47.3958 21.4292 46.4813 19.4542 44.975C17.5354 43.5104 15.3729 41.35 12.6417 38.6188L8.69376 34.6667C7.13126 33.1042 5.87918 31.8521 4.95001 30.7292C3.99168 29.5646 3.30209 28.45 2.92293 27.1292C2.54376 25.8063 2.53751 24.4959 2.73543 23.0021C2.92501 21.5563 3.32501 19.8313 3.82084 17.6771L4.44584 14.9625C4.86251 13.1646 5.20001 11.6979 5.60209 10.5292C6.02293 9.30627 6.55001 8.27918 7.41668 7.41252C8.28334 6.54585 9.31251 6.01668 10.5333 5.60002C11.7021 5.19585 13.1688 4.85835 14.9667 4.44377L17.6813 3.81877C19.8354 3.31877 21.5604 2.92293 23.0063 2.73127M19.7708 16.6563C19.2824 16.1678 18.6199 15.8934 17.9292 15.8934C17.2384 15.8934 16.5759 16.1678 16.0875 16.6563C15.5991 17.1447 15.3247 17.8072 15.3247 18.4979C15.3247 19.1887 15.5991 19.8512 16.0875 20.3396C16.3294 20.5814 16.6165 20.7733 16.9325 20.9042C17.2485 21.0351 17.5871 21.1024 17.9292 21.1024C18.2712 21.1024 18.6099 21.0351 18.9259 20.9042C19.2419 20.7733 19.529 20.5814 19.7708 20.3396C20.0127 20.0977 20.2045 19.8106 20.3354 19.4946C20.4663 19.1786 20.5337 18.84 20.5337 18.4979C20.5337 18.1559 20.4663 17.8172 20.3354 17.5012C20.2045 17.1852 20.0127 16.8981 19.7708 16.6563ZM13.8771 14.4479C14.9515 13.3733 16.4088 12.7694 17.9284 12.7692C19.4481 12.769 20.9055 13.3725 21.9802 14.4469C23.0549 15.5213 23.6588 16.9786 23.6589 18.4982C23.6591 20.0179 23.0557 21.4753 21.9813 22.55C20.9066 23.6247 19.449 24.2284 17.9292 24.2284C16.4093 24.2284 14.9518 23.6247 13.8771 22.55C12.8024 21.4753 12.1987 20.0178 12.1987 18.4979C12.1987 16.9781 12.8024 15.5226 13.8771 14.4479ZM27.0646 25.2208C26.5829 25.2392 26.1279 25.4465 25.7979 25.7979C24.9896 26.6063 25.2021 27.4125 25.4292 27.6396C25.6583 27.8667 26.4646 28.0771 27.2708 27.2709C28.9042 25.6375 31.725 25.0958 33.5313 26.9021C34.9333 28.3042 34.9229 30.3167 34.0833 31.9104C34.2899 32.2107 34.385 32.5738 34.3521 32.9367C34.3193 33.2997 34.1606 33.6398 33.9035 33.8981C33.6464 34.1564 33.3071 34.3168 32.9443 34.3514C32.5814 34.3859 32.2179 34.2926 31.9167 34.0875C30.9818 34.6005 29.8973 34.7714 28.85 34.5708C28.6489 34.5295 28.4579 34.449 28.288 34.3339C28.118 34.2188 27.9724 34.0713 27.8594 33.8999C27.7464 33.7285 27.6683 33.5365 27.6295 33.3349C27.5907 33.1334 27.592 32.9261 27.6333 32.725C27.6747 32.5239 27.7552 32.3329 27.8703 32.163C27.9854 31.993 28.1329 31.8474 28.3043 31.7344C28.4757 31.6214 28.6677 31.5433 28.8692 31.5045C29.0708 31.4657 29.2781 31.467 29.4792 31.5083C29.8479 31.5854 30.4438 31.4667 30.9542 30.9542C31.7604 30.1458 31.55 29.3396 31.3229 29.1125C31.0938 28.8854 30.2875 28.675 29.4813 29.4813C27.8479 31.1146 25.0271 31.6563 23.2208 29.85C21.8188 28.4479 21.8292 26.4354 22.6688 24.8417C22.4622 24.5414 22.3671 24.1784 22.4 23.8154C22.4328 23.4524 22.5915 23.1123 22.8486 22.854C23.1057 22.5957 23.445 22.4354 23.8078 22.4008C24.1707 22.3662 24.5342 22.4595 24.8354 22.6646C25.5438 22.2875 26.3208 22.0875 27.0958 22.0958C27.5102 22.0997 27.9061 22.268 28.1964 22.5638C28.4867 22.8596 28.6476 23.2585 28.6438 23.6729C28.6399 24.0873 28.4716 24.4832 28.1758 24.7735C27.88 25.0638 27.479 25.2247 27.0646 25.2208Z" fill="#FF8225"/>
</svg>
