<svg width="50" height="50" viewBox="0 0 50 50" fill="none" xmlns="http://www.w3.org/2000/svg">
<path d="M39.5833 14.5833H10.4167C9.86414 14.5833 9.33424 14.8027 8.94354 15.1934C8.55284 15.5841 8.33334 16.1141 8.33334 16.6666V43.7499C8.33334 44.3025 8.55284 44.8324 8.94354 45.2231C9.33424 45.6138 9.86414 45.8333 10.4167 45.8333H39.5833C40.1359 45.8333 40.6658 45.6138 41.0565 45.2231C41.4472 44.8324 41.6667 44.3025 41.6667 43.7499V16.6666C41.6667 16.1141 41.4472 15.5841 41.0565 15.1934C40.6658 14.8027 40.1359 14.5833 39.5833 14.5833Z" stroke="#FF8225" stroke-width="4" stroke-linecap="round" stroke-linejoin="round"/>
<path d="M17.7083 18.75V11.4583C17.7083 10.5007 17.8969 9.55256 18.2634 8.66789C18.6298 7.78323 19.1669 6.9794 19.844 6.30231C20.5211 5.62521 21.3249 5.08811 22.2096 4.72167C23.0943 4.35523 24.0425 4.16663 25 4.16663C25.9576 4.16663 26.9057 4.35523 27.7904 4.72167C28.6751 5.08811 29.4789 5.62521 30.156 6.30231C30.8331 6.9794 31.3702 7.78323 31.7366 8.66789C32.1031 9.55256 32.2917 10.5007 32.2917 11.4583V18.75" stroke="#FF8225" stroke-width="4" stroke-linecap="round" stroke-linejoin="round"/>
</svg>
