<svg width="38" height="38" viewBox="0 0 38 38" fill="none" xmlns="http://www.w3.org/2000/svg">
<rect x="0.171387" y="0.298218" width="37.575" height="37.575" rx="18.7875" fill="#FF8225"/>
<path d="M16.6714 23.2982C14.8547 23.2982 13.3174 22.6689 12.0594 21.4102C10.8014 20.1516 10.1721 18.6142 10.1714 16.7982C10.1707 14.9822 10.8001 13.4449 12.0594 12.1862C13.3187 10.9276 14.8561 10.2982 16.6714 10.2982C18.4867 10.2982 20.0244 10.9276 21.2844 12.1862C22.5444 13.4449 23.1734 14.9822 23.1714 16.7982C23.1714 17.5316 23.0547 18.2232 22.8214 18.8732C22.5881 19.5232 22.2714 20.0982 21.8714 20.5982L27.4714 26.1982C27.6547 26.3815 27.7464 26.6149 27.7464 26.8982C27.7464 27.1816 27.6547 27.4149 27.4714 27.5982C27.2881 27.7815 27.0547 27.8732 26.7714 27.8732C26.4881 27.8732 26.2547 27.7815 26.0714 27.5982L20.4714 21.9982C19.9714 22.3982 19.3964 22.7149 18.7464 22.9482C18.0964 23.1816 17.4047 23.2982 16.6714 23.2982ZM16.6714 21.2982C17.9214 21.2982 18.9841 20.8609 19.8594 19.9862C20.7347 19.1116 21.1721 18.0489 21.1714 16.7982C21.1707 15.5476 20.7334 14.4852 19.8594 13.6112C18.9854 12.7372 17.9227 12.2996 16.6714 12.2982C15.4201 12.2969 14.3577 12.7346 13.4844 13.6112C12.6111 14.4879 12.1734 15.5502 12.1714 16.7982C12.1694 18.0462 12.6071 19.1089 13.4844 19.9862C14.3617 20.8636 15.4241 21.3009 16.6714 21.2982Z" fill="white"/>
</svg>
