<svg width="50" height="50" viewBox="0 0 50 50" fill="none" xmlns="http://www.w3.org/2000/svg">
<path d="M40.625 36.4583C40.625 37.8397 40.0763 39.1644 39.0995 40.1412C38.1228 41.1179 36.798 41.6667 35.4167 41.6667C34.0353 41.6667 32.7106 41.1179 31.7338 40.1412C30.7571 39.1644 30.2083 37.8397 30.2083 36.4583C30.2083 35.077 30.7571 33.7522 31.7338 32.7755C32.7106 31.7987 34.0353 31.25 35.4167 31.25C36.798 31.25 38.1228 31.7987 39.0995 32.7755C40.0763 33.7522 40.625 35.077 40.625 36.4583ZM19.7917 36.4583C19.7917 37.8397 19.2429 39.1644 18.2662 40.1412C17.2894 41.1179 15.9647 41.6667 14.5833 41.6667C13.202 41.6667 11.8772 41.1179 10.9005 40.1412C9.92373 39.1644 9.375 37.8397 9.375 36.4583C9.375 35.077 9.92373 33.7522 10.9005 32.7755C11.8772 31.7987 13.202 31.25 14.5833 31.25C15.9647 31.25 17.2894 31.7987 18.2662 32.7755C19.2429 33.7522 19.7917 35.077 19.7917 36.4583Z" stroke="#FF8225" stroke-width="3.5" stroke-linecap="round" stroke-linejoin="round"/>
<path d="M30.2084 36.4584H19.7917M40.625 36.4584H42.2146C42.6729 36.4584 42.9021 36.4584 43.0938 36.4334C43.7835 36.3475 44.4248 36.0341 44.9165 35.5429C45.4081 35.0516 45.7219 34.4105 45.8084 33.7209C45.8334 33.5271 45.8334 33.298 45.8334 32.8396V27.0834C45.8334 23.4919 44.4066 20.0475 41.8671 17.508C39.3275 14.9684 35.8832 13.5417 32.2917 13.5417M31.25 32.2917V14.5834C31.25 11.6375 31.25 10.1646 30.3334 9.25004C29.4209 8.33337 27.9479 8.33337 25 8.33337H10.4167C7.47085 8.33337 5.99794 8.33337 5.08335 9.25004C4.16669 10.1625 4.16669 11.6355 4.16669 14.5834V31.25C4.16669 33.198 4.16669 34.1709 4.58544 34.8959C4.8597 35.3709 5.25417 35.7654 5.72919 36.0396C6.45419 36.4584 7.4271 36.4584 9.37502 36.4584" stroke="#FF8225" stroke-width="3.5" stroke-linecap="round" stroke-linejoin="round"/>
</svg>
