<svg width="50" height="50" viewBox="0 0 50 50" fill="none" xmlns="http://www.w3.org/2000/svg">
<path d="M25 4.16675C20.8796 4.16675 16.8517 5.3886 13.4257 7.6778C9.99963 9.96699 7.32937 13.2207 5.75254 17.0275C4.17571 20.8343 3.76314 25.0232 4.567 29.0645C5.37086 33.1057 7.35504 36.8179 10.2686 39.7315C13.1822 42.6451 16.8944 44.6292 20.9356 45.4331C24.9769 46.237 29.1658 45.8244 32.9726 44.2476C36.7794 42.6707 40.0331 40.0005 42.3223 36.5745C44.6115 33.1484 45.8334 29.1205 45.8334 25.0001C45.8279 19.4764 43.6311 14.1806 39.7253 10.2748C35.8195 6.36897 30.5237 4.17226 25 4.16675ZM37.3729 20.2355V21.5813C37.373 21.6843 37.3524 21.7863 37.3123 21.8812C37.2723 21.9761 37.2137 22.062 37.1399 22.1339C37.0661 22.2057 36.9786 22.2621 36.8827 22.2996C36.7867 22.3371 36.6842 22.3549 36.5813 22.3522C34.3816 22.1968 32.2772 21.3936 30.5334 20.0438V29.8938C30.5329 30.984 30.3152 32.0631 29.8932 33.0682C29.4711 34.0734 28.853 34.9843 28.075 35.748C27.2907 36.5316 26.3578 37.1508 25.3311 37.5694C24.3044 37.9879 23.2045 38.1974 22.0959 38.1855C19.8664 38.1823 17.7266 37.3075 16.1334 35.748C15.1196 34.7259 14.3894 33.4575 14.0146 32.0676C13.6398 30.6777 13.6334 29.2141 13.9959 27.8209C14.3271 26.4834 14.9959 25.2542 15.9396 24.2522C16.6434 23.3919 17.5306 22.6999 18.5363 22.2266C19.5419 21.7533 20.6407 21.5108 21.7521 21.5167H23.4604V25.0647C23.4612 25.1677 23.44 25.2697 23.3982 25.3639C23.3564 25.4581 23.295 25.5423 23.2182 25.6109C23.1413 25.6795 23.0507 25.7309 22.9523 25.7618C22.854 25.7926 22.7502 25.8021 22.6479 25.7897C21.6561 25.4917 20.5872 25.5906 19.6668 26.0653C18.7463 26.5401 18.0462 27.3536 17.7139 28.3346C17.3816 29.3155 17.4431 30.3871 17.8856 31.3235C18.328 32.2599 19.1167 32.988 20.0854 33.3542C20.6479 33.6772 21.2771 33.8667 21.9229 33.9105C22.4229 33.9313 22.9229 33.8688 23.3979 33.7188C24.1909 33.4513 24.8807 32.943 25.371 32.2648C25.8613 31.5866 26.1278 30.7724 26.1334 29.9355V11.9876C26.1334 11.789 26.2121 11.5986 26.3523 11.458C26.4925 11.3174 26.6827 11.2381 26.8813 11.2376H29.8292C30.0207 11.2378 30.2049 11.3113 30.344 11.443C30.4831 11.5747 30.5665 11.7547 30.5771 11.9459C30.6846 12.8651 30.9765 13.7532 31.4355 14.5569C31.8944 15.3606 32.5109 16.0633 33.2479 16.623C34.244 17.3707 35.4269 17.8292 36.6667 17.948C36.8524 17.9639 37.026 18.0465 37.1555 18.1806C37.285 18.3146 37.3615 18.491 37.3709 18.6772L37.3729 20.2355Z" fill="white"/>
</svg>
